<svg viewBox="0 0 280 310" fill="none" xmlns="http://www.w3.org/2000/svg">
  <defs>
    <radialGradient id="knitGrad" cx="45%" cy="38%" r="58%">
      <stop offset="0%" stop-color="#F5ECD7"/>
      <stop offset="60%" stop-color="#E8DFC8"/>
      <stop offset="100%" stop-color="#D9CEAD"/>
    </radialGradient>
    <radialGradient id="knitHead" cx="48%" cy="40%" r="55%">
      <stop offset="0%" stop-color="#F5ECD7"/>
      <stop offset="100%" stop-color="#E5DCCA"/>
    </radialGradient>
    <linearGradient id="hornGrad" x1="30%" y1="0%" x2="70%" y2="100%">
      <stop offset="0%" stop-color="#E8E8EE"/>
      <stop offset="30%" stop-color="#C8C8D4"/>
      <stop offset="60%" stop-color="#D8D8E2"/>
      <stop offset="100%" stop-color="#B0B0BE"/>
    </linearGradient>
    <radialGradient id="shirtGrad" cx="50%" cy="35%" r="60%">
      <stop offset="0%" stop-color="#1E2A4A"/>
      <stop offset="100%" stop-color="#141E36"/>
    </radialGradient>
    <linearGradient id="logoGold" x1="0%" y1="0%" x2="100%" y2="0%">
      <stop offset="0%" stop-color="#D4B96A"/>
      <stop offset="50%" stop-color="#C9A96A"/>
      <stop offset="100%" stop-color="#B89D5A"/>
    </linearGradient>
    <pattern id="knitTex" x="0" y="0" width="8" height="8" patternUnits="userSpaceOnUse">
      <circle cx="4" cy="4" r="3.2" fill="none" stroke="#D6CCB4" stroke-width=".5" opacity=".3"/>
    </pattern>
    <pattern id="knitTexH" x="0" y="0" width="7" height="7" patternUnits="userSpaceOnUse">
      <circle cx="3.5" cy="3.5" r="2.8" fill="none" stroke="#D6CCB4" stroke-width=".45" opacity=".25"/>
    </pattern>
    <radialGradient id="hornSpk" cx="50%" cy="50%" r="50%">
      <stop offset="0%" stop-color="white" stop-opacity=".7"/>
      <stop offset="100%" stop-color="white" stop-opacity="0"/>
    </radialGradient>
  </defs>

  <ellipse cx="140" cy="200" rx="82" ry="85" fill="url(#knitGrad)"/>
  <ellipse cx="140" cy="200" rx="82" ry="85" fill="url(#knitTex)"/>

  <ellipse cx="100" cy="278" rx="34" ry="20" fill="url(#knitGrad)"/>
  <ellipse cx="100" cy="278" rx="34" ry="20" fill="url(#knitTex)"/>
  <ellipse cx="180" cy="278" rx="34" ry="20" fill="url(#knitGrad)"/>
  <ellipse cx="180" cy="278" rx="34" ry="20" fill="url(#knitTex)"/>

  <path d="M68 158 Q72 132 100 127 Q118 142 140 142 Q162 142 180 127 Q208 132 212 158 L214 238 Q214 255 196 258 L84 258 Q66 255 66 238 Z" fill="url(#shirtGrad)"/>
  <path d="M100 127 Q118 144 140 144 Q162 144 180 127" stroke="#0D1526" stroke-width="1.5" fill="none"/>
  <path d="M78 252 Q140 248 202 252" stroke="#0D1526" stroke-width="1" fill="none" opacity=".4"/>

  <rect x="96" y="178" width="18" height="14" rx="2" fill="none" stroke="url(#logoGold)" stroke-width="1.3"/>
  <text x="105" y="189" text-anchor="middle" font-family="Inter,system-ui,sans-serif" font-weight="700" font-size="8" fill="url(#logoGold)">UP</text>
  <text x="122" y="189.5" font-family="Inter,system-ui,sans-serif" font-weight="600" font-size="11" fill="url(#logoGold)">upscale ai</text>

  <ellipse cx="140" cy="98" rx="68" ry="62" fill="url(#knitHead)"/>
  <ellipse cx="140" cy="98" rx="68" ry="62" fill="url(#knitTexH)"/>
  <ellipse cx="140" cy="135" rx="40" ry="10" fill="#D2C8B2" opacity=".2"/>

  <path d="M82 62 Q68 28 78 20 Q88 28 95 55 Z" fill="url(#knitGrad)"/>
  <path d="M85 55 Q74 32 80 26 Q87 32 92 50 Z" fill="#E8DFC8" opacity=".5"/>
  <path d="M198 62 Q212 28 202 20 Q192 28 185 55 Z" fill="url(#knitGrad)"/>
  <path d="M195 55 Q206 32 200 26 Q193 32 188 50 Z" fill="#E8DFC8" opacity=".5"/>

  <path d="M140 5 L128 52 Q140 46 152 52 Z" fill="url(#hornGrad)"/>
  <circle cx="136" cy="18" r="2" fill="url(#hornSpk)"/>
  <circle cx="142" cy="28" r="1.5" fill="url(#hornSpk)"/>
  <circle cx="135" cy="36" r="1.8" fill="url(#hornSpk)"/>
  <circle cx="144" cy="14" r="1.2" fill="url(#hornSpk)"/>
  <path d="M133 40 Q140 36 147 40" stroke="#A8A8B6" stroke-width=".8" fill="none" opacity=".4"/>
  <path d="M134 32 Q140 28 146 32" stroke="#A8A8B6" stroke-width=".8" fill="none" opacity=".4"/>
  <path d="M136 24 Q140 20 144 24" stroke="#A8A8B6" stroke-width=".8" fill="none" opacity=".4"/>

  <circle cx="118" cy="95" r="5" fill="#1a1a1a"/>
  <circle cx="162" cy="95" r="5" fill="#1a1a1a"/>
  <circle cx="120" cy="93" r="1.5" fill="white" opacity=".6"/>
  <circle cx="164" cy="93" r="1.5" fill="white" opacity=".6"/>

  <ellipse cx="140" cy="106" rx="5" ry="3" fill="#DDD4BE" opacity=".5"/>

  <ellipse cx="58" cy="190" rx="24" ry="35" fill="url(#knitGrad)" transform="rotate(25 58 190)"/>
  <ellipse cx="58" cy="190" rx="24" ry="35" fill="url(#knitTex)" transform="rotate(25 58 190)"/>
  <path d="M70 158 Q60 168 55 162" stroke="#0D1526" stroke-width="1.5" fill="none" opacity=".5"/>

  <ellipse cx="222" cy="190" rx="24" ry="35" fill="url(#knitGrad)" transform="rotate(-25 222 190)"/>
  <ellipse cx="222" cy="190" rx="24" ry="35" fill="url(#knitTex)" transform="rotate(-25 222 190)"/>
  <path d="M210 158 Q220 168 225 162" stroke="#0D1526" stroke-width="1.5" fill="none" opacity=".5"/>

  <ellipse cx="100" cy="278" rx="34" ry="20" fill="url(#knitGrad)"/>
  <ellipse cx="180" cy="278" rx="34" ry="20" fill="url(#knitGrad)"/>
</svg>
