<svg viewBox="0 0 260 300" fill="none" xmlns="http://www.w3.org/2000/svg">
  <defs>
    <radialGradient id="bodyGrad" cx="50%" cy="40%" r="55%">
      <stop offset="0%" stop-color="#FFFFFF"/>
      <stop offset="100%" stop-color="#E8EAF0"/>
    </radialGradient>
    <radialGradient id="headGrad" cx="50%" cy="40%" r="55%">
      <stop offset="0%" stop-color="#FFFFFF"/>
      <stop offset="100%" stop-color="#F0F1F5"/>
    </radialGradient>
    <linearGradient id="hornGrad" x1="50%" y1="0%" x2="50%" y2="100%">
      <stop offset="0%" stop-color="#FFD97D"/>
      <stop offset="50%" stop-color="#C9A96A"/>
      <stop offset="100%" stop-color="#E8C55A"/>
    </linearGradient>
    <linearGradient id="maneGrad" x1="0%" y1="0%" x2="100%" y2="100%">
      <stop offset="0%" stop-color="#C9A96A"/>
      <stop offset="100%" stop-color="#E8D5A0"/>
    </linearGradient>
    <radialGradient id="cheekGrad" cx="50%" cy="50%" r="50%">
      <stop offset="0%" stop-color="#FFB8C6"/>
      <stop offset="100%" stop-color="#FF8FAA" stop-opacity="0.4"/>
    </radialGradient>
    <radialGradient id="earInner" cx="50%" cy="50%" r="50%">
      <stop offset="0%" stop-color="#FFDDE5"/>
      <stop offset="100%" stop-color="#FFB8C6" stop-opacity="0.5"/>
    </radialGradient>
    <radialGradient id="shirtGrad" cx="50%" cy="30%" r="65%">
      <stop offset="0%" stop-color="#5C7CFA"/>
      <stop offset="100%" stop-color="#3B5BDB"/>
    </radialGradient>
    <linearGradient id="logoGrad" x1="0%" y1="0%" x2="100%" y2="100%">
      <stop offset="0%" stop-color="#FFD97D"/>
      <stop offset="50%" stop-color="#C9A96A"/>
      <stop offset="100%" stop-color="#E8C55A"/>
    </linearGradient>
  </defs>

  <ellipse cx="130" cy="190" rx="90" ry="95" fill="url(#bodyGrad)"/>

  <path d="M52 155 Q55 130 90 125 Q110 140 130 140 Q150 140 170 125 Q205 130 208 155 L210 230 Q210 250 190 255 L70 255 Q50 250 50 230 Z" fill="url(#shirtGrad)"/>
  <path d="M90 125 Q110 142 130 142 Q150 142 170 125" stroke="#4A6CF7" stroke-width="2" fill="none"/>
  <path d="M65 240 Q130 235 195 240" stroke="#4A6CF7" stroke-width="1" fill="none" stroke-dasharray="4 3" opacity=".4"/>

  <text x="130" y="185" text-anchor="middle" font-family="Inter,system-ui,sans-serif" font-weight="800" font-size="16" fill="url(#logoGrad)">Upscale AI</text>
  <line x1="95" y1="190" x2="165" y2="190" stroke="url(#logoGrad)" stroke-width="1.5" opacity=".5"/>

  <path d="M130 145 L130 165" stroke="#4A6CF7" stroke-width="1" fill="none" stroke-dasharray="3 3" opacity=".25"/>

  <ellipse cx="130" cy="100" rx="72" ry="65" fill="url(#headGrad)"/>
  <ellipse cx="130" cy="100" rx="72" ry="65" fill="none" stroke="#D5D8E0" stroke-width="1" opacity=".4"/>

  <ellipse cx="72" cy="55" rx="22" ry="30" fill="#F0F1F5" transform="rotate(-15 72 55)"/>
  <ellipse cx="72" cy="58" rx="12" ry="18" fill="url(#earInner)" transform="rotate(-15 72 58)" opacity=".6"/>
  <ellipse cx="188" cy="55" rx="22" ry="30" fill="#F0F1F5" transform="rotate(15 188 55)"/>
  <ellipse cx="188" cy="58" rx="12" ry="18" fill="url(#earInner)" transform="rotate(15 188 58)" opacity=".6"/>

  <path d="M130 8 L116 55 Q130 47 144 55 Z" fill="url(#hornGrad)"/>
  <path d="M123 40 Q130 35 137 40" stroke="#B5955A" stroke-width="1.2" fill="none" opacity=".5"/>
  <path d="M121 30 Q130 25 139 30" stroke="#B5955A" stroke-width="1.2" fill="none" opacity=".5"/>
  <path d="M125 19 Q130 15 135 19" stroke="#B5955A" stroke-width="1.2" fill="none" opacity=".5"/>
  <circle cx="128" cy="18" r="2.5" fill="#FFF5D4" opacity=".9"/>

  <path d="M90 38 Q72 58 80 88 Q87 70 95 60 Q84 52 90 38Z" fill="url(#maneGrad)" opacity=".9"/>
  <path d="M80 55 Q62 78 72 108 Q80 90 88 80 Q78 70 80 55Z" fill="url(#maneGrad)" opacity=".7"/>
  <path d="M72 78 Q56 100 68 128 Q76 110 84 100 Q74 90 72 78Z" fill="url(#maneGrad)" opacity=".5"/>

  <ellipse cx="108" cy="95" rx="12" ry="14" fill="#1a1a2e"/>
  <ellipse cx="152" cy="95" rx="12" ry="14" fill="#1a1a2e"/>
  <circle cx="113" cy="89" r="5" fill="white" opacity=".9"/>
  <circle cx="157" cy="89" r="5" fill="white" opacity=".9"/>
  <circle cx="105" cy="97" r="2.5" fill="white" opacity=".5"/>
  <circle cx="149" cy="97" r="2.5" fill="white" opacity=".5"/>

  <path d="M118 113 Q130 124 142 113" stroke="#555" stroke-width="2.5" fill="none" stroke-linecap="round"/>
  <ellipse cx="130" cy="106" rx="3" ry="2" fill="#D5D8E0"/>

  <ellipse cx="86" cy="108" rx="12" ry="7" fill="url(#cheekGrad)" opacity=".45"/>
  <ellipse cx="174" cy="108" rx="12" ry="7" fill="url(#cheekGrad)" opacity=".45"/>

  <ellipse cx="42" cy="178" rx="20" ry="30" fill="#F0F1F5" transform="rotate(22 42 178)"/>
  <ellipse cx="218" cy="178" rx="20" ry="30" fill="#F0F1F5" transform="rotate(-22 218 178)"/>
  <path d="M55 155 Q48 162 42 158" stroke="#4A6CF7" stroke-width="2" fill="none" opacity=".6"/>
  <path d="M205 155 Q212 162 218 158" stroke="#4A6CF7" stroke-width="2" fill="none" opacity=".6"/>
  <path d="M36 170 Q42 165 48 170" stroke="#D5D8E0" stroke-width="1" fill="none" stroke-dasharray="3 2" opacity=".5"/>
  <path d="M212 170 Q218 165 224 170" stroke="#D5D8E0" stroke-width="1" fill="none" stroke-dasharray="3 2" opacity=".5"/>

  <ellipse cx="95" cy="282" rx="30" ry="18" fill="#F0F1F5"/>
  <ellipse cx="165" cy="282" rx="30" ry="18" fill="#F0F1F5"/>
  <ellipse cx="95" cy="287" rx="20" ry="9" fill="#C9A96A" opacity=".65"/>
  <ellipse cx="165" cy="287" rx="20" ry="9" fill="#C9A96A" opacity=".65"/>

  <path d="M220 215 Q248 198 242 168 Q238 185 228 190 Q246 172 242 152" stroke="url(#maneGrad)" stroke-width="7" fill="none" stroke-linecap="round" opacity=".8"/>
  <path d="M242 152 Q238 140 244 130" stroke="url(#maneGrad)" stroke-width="4.5" fill="none" stroke-linecap="round" opacity=".6"/>
</svg>
